<?xml version="1.0" standalone="no"?>
<!DOCTYPE svg PUBLIC "-//W3C//DTD SVG 20010904//EN"
 "http://www.w3.org/TR/2001/REC-SVG-20010904/DTD/svg10.dtd">
<svg version="1.0" xmlns="http://www.w3.org/2000/svg"
 width="1167.000000pt" height="1180.000000pt" viewBox="0 0 1167.000000 1180.000000"
 preserveAspectRatio="xMidYMid meet">

<g transform="translate(0.000000,1180.000000) scale(0.100000,-0.100000)"
fill="#000000" stroke="none">
<path d="M3130 7220 c-125 -23 -233 -68 -340 -141 -65 -45 -155 -136 -218
-219 -40 -54 -132 -227 -132 -249 0 -6 -4 -19 -9 -29 -13 -22 -35 -108 -55
-205 -18 -87 -20 -268 -5 -337 6 -25 14 -63 18 -85 15 -74 70 -190 133 -276
136 -189 356 -311 639 -354 109 -17 120 -17 215 -1 112 20 134 26 222 69 85
41 171 121 210 195 37 70 40 97 11 112 -32 18 -58 5 -130 -63 -81 -77 -165
-120 -281 -144 -84 -17 -91 -17 -180 1 -108 21 -168 41 -220 73 -21 13 -42 23
-48 23 -5 0 -43 34 -84 75 -109 111 -165 232 -186 404 -15 128 5 316 46 436 8
23 14 47 14 55 1 31 114 237 165 300 84 103 152 152 280 205 58 24 244 24 311
0 142 -50 233 -120 306 -233 54 -84 70 -125 102 -262 15 -67 30 -96 56 -110
26 -14 68 -2 82 23 12 24 3 436 -12 502 -14 64 -53 72 -116 25 -21 -16 -44
-30 -49 -30 -6 0 -38 23 -70 51 -105 89 -176 125 -350 180 -41 13 -270 20
-325 9z"/>
<path d="M5297 7075 c-31 -31 -17 -57 46 -88 63 -30 75 -50 112 -172 10 -33
28 -91 40 -130 12 -38 29 -95 38 -125 9 -30 35 -111 57 -180 22 -69 47 -150
56 -180 9 -30 27 -86 39 -125 12 -38 32 -101 44 -140 12 -38 28 -77 34 -86 24
-32 74 -49 144 -49 59 0 72 3 96 25 16 16 123 219 272 518 166 334 255 501
275 520 22 20 41 27 70 27 44 0 66 25 56 65 -8 31 -60 42 -263 55 -178 11
-213 5 -213 -35 0 -30 25 -49 93 -70 90 -28 92 -54 14 -210 -29 -58 -159 -327
-241 -497 -31 -64 -56 -122 -56 -128 0 -6 -7 -10 -16 -8 -15 3 -29 40 -70 178
-9 30 -22 73 -29 95 -19 62 -32 105 -50 170 -10 33 -23 78 -30 100 -7 22 -21
67 -30 100 -10 33 -22 71 -26 85 -18 55 -21 102 -9 125 11 20 23 25 81 31 56
5 71 11 84 30 34 52 -22 84 -152 84 -48 1 -108 5 -133 10 -25 5 -106 12 -180
16 -122 6 -137 5 -153 -11z"/>
<path d="M4655 6630 c-33 -9 -69 -20 -80 -24 -11 -4 -33 -13 -48 -19 -79 -29
-201 -130 -234 -192 -49 -93 -45 -195 10 -241 57 -48 191 -22 230 44 14 25 17
50 15 145 -3 103 -1 117 17 137 47 52 140 76 230 59 40 -7 57 -17 85 -49 38
-43 70 -126 70 -181 0 -19 6 -65 14 -104 8 -38 17 -93 20 -121 l6 -51 -122 -5
c-203 -9 -349 -59 -460 -158 -75 -67 -108 -137 -108 -230 0 -181 131 -299 332
-300 141 0 283 55 390 150 31 27 59 50 62 50 3 0 25 -20 50 -44 50 -51 85 -61
179 -53 119 9 217 92 217 182 0 74 -48 80 -87 11 -11 -21 -66 -24 -88 -6 -8 7
-15 22 -15 34 0 11 -7 57 -15 101 -8 44 -22 127 -30 185 -9 58 -20 128 -25
155 -5 28 -14 84 -20 125 -7 41 -15 98 -20 125 -21 138 -96 232 -220 278 -62
23 -270 21 -355 -3z m343 -702 c11 -14 24 -76 43 -201 l12 -78 -39 -41 c-59
-61 -147 -98 -235 -98 -61 0 -76 4 -109 28 -47 33 -63 60 -79 132 -12 49 -11
62 4 105 25 75 65 112 158 145 63 23 228 28 245 8z"/>
<path d="M6785 6521 c-201 -53 -355 -202 -425 -411 -16 -47 -39 -194 -39 -250
-1 -224 124 -435 311 -528 121 -59 192 -74 335 -69 65 2 138 9 162 16 125 34
250 132 296 233 37 80 40 109 17 138 -17 21 -23 23 -45 13 -15 -7 -37 -29 -50
-50 -41 -64 -131 -133 -174 -133 -10 0 -24 -5 -30 -11 -16 -16 -169 -16 -228
0 -78 21 -150 60 -193 105 -40 41 -82 109 -82 133 0 7 -3 13 -8 13 -10 0 -35
123 -36 175 l-1 40 50 3 c27 2 95 -2 150 -8 55 -7 161 -16 235 -20 74 -5 182
-14 239 -21 101 -11 107 -11 146 10 55 29 75 72 75 159 0 119 -65 271 -148
343 -37 33 -126 89 -141 89 -6 0 -19 4 -29 10 -71 39 -277 51 -387 21z m216
-108 c71 -22 119 -60 151 -120 44 -81 57 -255 22 -284 -10 -8 -39 -10 -87 -6
-39 3 -158 13 -264 21 -106 8 -197 17 -203 21 -7 5 -9 22 -5 49 20 128 109
264 195 298 14 6 34 14 45 19 53 22 82 22 146 2z"/>
<path d="M3288 6490 c-59 -11 -92 -51 -50 -62 16 -5 25 -29 69 -183 7 -27 18
-65 24 -83 9 -28 8 -37 -6 -53 -17 -17 -17 -19 -1 -25 17 -6 47 0 146 32 25 8
55 14 67 14 38 0 53 11 53 39 0 36 10 45 26 23 17 -23 106 -22 132 1 12 11 36
17 65 17 37 0 47 4 52 21 5 14 -1 27 -18 43 -14 13 -29 41 -33 62 -13 71 -40
121 -69 128 -38 10 -96 -3 -131 -30 -55 -41 -47 -104 11 -90 22 6 25 12 25 47
0 38 2 40 27 37 33 -4 57 -45 48 -80 -5 -18 -14 -24 -38 -26 -20 -2 -44 -15
-65 -35 -18 -18 -35 -31 -38 -29 -2 1 -12 2 -23 2 -13 0 -20 -10 -24 -36 -8
-45 -23 -64 -53 -64 -12 0 -26 -5 -29 -10 -11 -18 -43 9 -50 42 -8 38 -21 84
-42 146 -9 24 -16 69 -17 100 -1 30 -6 56 -11 58 -6 1 -27 -2 -47 -6z m465
-212 c9 -33 -10 -58 -43 -58 -30 0 -36 10 -30 50 5 35 65 42 73 8z"/>
<path d="M8152 5848 c-7 -7 -12 -42 -12 -88 0 -42 -3 -79 -6 -83 -4 -3 -18 2
-32 11 -34 22 -131 21 -166 -2 -14 -9 -38 -34 -52 -56 -23 -34 -27 -51 -27
-111 0 -61 4 -75 29 -111 42 -59 86 -81 153 -74 30 3 61 12 69 20 13 13 18 13
38 -1 52 -34 54 -24 54 236 0 132 -3 246 -6 255 -7 19 -25 21 -42 4z m-77
-202 c44 -23 65 -64 65 -126 0 -81 -48 -140 -114 -140 -35 0 -86 38 -102 75
-29 70 -8 150 48 185 39 24 66 25 103 6z"/>
<path d="M8945 5834 c-64 -16 -136 -71 -166 -127 -18 -33 -22 -58 -22 -122 -1
-89 18 -139 70 -186 62 -56 83 -64 173 -63 102 0 150 19 150 60 0 21 -4 25
-17 21 -108 -34 -129 -37 -177 -26 -97 23 -155 115 -141 223 8 57 24 88 67
127 45 41 138 52 205 24 50 -21 63 -19 63 10 0 19 -8 28 -37 40 -39 17 -134
27 -168 19z"/>
<path d="M9570 5790 c-14 -27 -5 -40 29 -40 20 0 30 6 34 19 10 40 -44 57 -63
21z"/>
<path d="M9299 5703 c-33 -5 -91 -59 -112 -105 -23 -48 -22 -120 2 -167 68
-132 257 -135 324 -4 21 40 22 144 3 181 -41 78 -116 111 -217 95z m99 -56
c52 -22 75 -61 75 -127 0 -100 -67 -157 -154 -131 -106 32 -123 192 -26 251
37 23 63 25 105 7z"/>
<path d="M9820 5703 c-14 -3 -33 -12 -43 -21 -13 -12 -20 -13 -29 -4 -7 7 -22
12 -35 12 l-23 0 0 -175 0 -175 24 0 c32 0 36 14 36 143 1 122 7 140 63 165
40 18 62 15 93 -11 27 -23 27 -26 29 -148 1 -132 5 -149 34 -149 16 0 19 13
24 103 9 164 -8 228 -68 253 -34 14 -57 15 -105 7z"/>
<path d="M8272 5688 c-17 -17 -16 -239 2 -281 21 -52 60 -72 138 -72 65 0 69
2 105 38 l38 37 0 135 c0 94 -4 138 -12 146 -27 27 -37 -9 -44 -144 -4 -73 -8
-133 -8 -134 -1 -2 -18 -10 -38 -19 -47 -19 -106 -6 -125 29 -8 13 -15 74 -18
146 -5 122 -12 145 -38 119z"/>
<path d="M9576 5684 c-3 -9 -6 -82 -6 -164 0 -82 3 -155 6 -164 8 -22 31 -20
44 3 15 28 13 314 -2 329 -17 17 -35 15 -42 -4z"/>
</g>
</svg>
